<?xml version="1.0" encoding="UTF-8"?>
<svg id="_Шар_1" data-name="Шар 1" xmlns="http://www.w3.org/2000/svg" xmlns:xlink="http://www.w3.org/1999/xlink" viewBox="0 0 800 800">
  <defs>
    <style>
      .cls-1 {
        fill: #fff;
      }

      .cls-2 {
        fill: url(#_Градієнт_без_назви_3);
      }

      .cls-3 {
        opacity: .5;
      }
    </style>
    <radialGradient id="_Градієнт_без_назви_3" data-name="Градієнт без назви 3" cx="54.32" cy="366.46" fx="54.32" fy="366.46" r="1036.32" gradientUnits="userSpaceOnUse">
      <stop offset=".07" stop-color="#9168c0"/>
      <stop offset=".34" stop-color="#5684d1"/>
      <stop offset=".67" stop-color="#1ba1e3"/>
    </radialGradient>
  </defs>
  <path class="cls-2" d="M800,399v2c-34,2-67,8-98.5,18-25,7.5-48.5,17-71,28.5-1,.5-1.5,1-2.5,1.5-7,4-14,8-21,12-16.5,9.5-32,20.5-46.5,33.5h-.5c-5,3.5-10,7.5-14.5,12-7,5.5-14,12-20.5,18.5-3.5,4-7.5,8-11,12-15.5,16-29.5,33.5-41.5,52-2.5,4-5,8-7.5,12-4.5,6.5-8.5,13-12.5,20-2,4-4,8-6,12-26,50.5-42,107-45.5,167h-2C386,585,215,414,0,401v-2C215,386,386,215,399,0h2c3,52,15.5,101.5,35.5,146.5v.5c6.5,14.5,14,29,22.5,42.5v.5c4,7,9,14,13.5,21,3.5,5.5,7,11,11.5,16,3.5,5.5,8,11.5,12.5,16.5,3.5,4,7,8,10.5,12,13.5,15.5,28,30,43.5,43,5,4.5,10.5,8,15.5,12,7.5,6,15,12,23,17,6.5,4.5,12.5,8,19,12,6,4,12,7.5,18,10,2,1.5,4.5,2.5,7,3.5,5,3.5,10.5,6,16,8.5,5,2.5,10.5,4.5,15.5,6.5,42,17.5,87.5,28.5,135.5,31Z"/>
  <g class="cls-3">
    <path d="M478,493.5c-3,0-5,1.5-5,5v22.5c0,3,2,4.5,5,4.5l47-.5c6.5-6.5,13.5-13,20.5-18.5,4.5-4.5,9.5-8.5,14.5-12l-82-1ZM663.5,407v-9.5c0-12.5.5-22.5,1-29.5-5-2-10.5-4-15.5-6.5-5.5-2.5-11-5-16-8.5-2.5-1-5-2-7-3.5,1.5,11,2,26.5,2,47v10.5h-121c1-2,2.5-4,3.5-7,2.5-5,4-7.5,4.5-8.5,5.5-11,10.5-18.5,15-22.5,2.5-2,4-4.5,4-6.5,0-2.5-2.5-4.5-6.5-6.5-9.5-4-20-7.5-32-11.5-2,10-6,20.5-11,32-18.5,42-49.5,79-93,110,7,4.5,13,9.5,17.5,15.5,3.5,5,6.5,7.5,8,7.5,1,0,4-2,9.5-6,24.5-21,45-43,60.5-66h141v11.5c1-.5,1.5-1,2.5-1.5,29-17.5,59.5-31,92-40.5h-59ZM566,310.5c-5-4-10.5-7.5-15.5-12h-57v-55h3c-4.5-5-9-11-12.5-16.5-4.5-5-8-10.5-11.5-16-4.5-7-9.5-14-13.5-21v78.5l-1.5,55.5c0,3,1.5,4.5,5,4.5l84.5-1h42c-8-5-15.5-11-23-17ZM465,589l-77.5-1c-3.5,0-5,1.5-5,4.5v25c0,3,1.5,5,5,5l65-1.5c4-7,8-13.5,12.5-20,2.5-4,5-8,7.5-12h-7.5Z"/>
  </g>
  <path class="cls-1" d="M444,601l-77.5-1c-3.5,0-5,1.5-5,4.5v25c0,3,1.5,5,5,5l77.5-1.5h2.5c5.5-11,11.5-21.5,18.5-32h-21ZM539.5,506.5l-82.5-1c-3,0-5,1.5-5,5v22.5c0,3,2,4.5,5,4.5l57-.5c9.5-11,20-21.5,31.5-30.5h-6ZM701.5,419h-59v-9.5c0-22.5,1-36,3-40.5,1.5-3,2.5-5.5,3.5-7.5,0-1,.5-2,.5-2.5,0-2.5-2.5-4-7-5-3-.5-6-.5-9.5-1-9-.5-19-1-29.5-1.5,2.5,10.5,3.5,29.5,3.5,57v10.5h-121c1-2,2.5-4,3.5-7,2.5-5,4-7.5,4.5-8.5,5.5-11,10.5-18.5,15-22.5,2.5-2,4-4.5,4-6.5,0-2.5-2.5-4.5-6.5-6.5-9.5-4-20-7.5-32-11.5-2,10-6,20.5-11,32-18.5,42-49.5,79-93,110,7,4.5,13,9.5,17.5,15.5,3.5,5,6.5,7.5,8,7.5,1,0,4-2,9.5-6,24.5-21,45-43,60.5-66h141v11.5c29.5-18,61-32,94.5-42ZM566,310.5h-93.5v-55h34.5c-8.5-9-16.5-18.5-23-28.5h-11.5v-16c-14-20.5-26-41.5-36-64l1.5,55v78.5l-1.5,55.5c0,3,1.5,4.5,5,4.5l84.5-1h82c-14.5-8.5-28.5-18-42-29Z"/>
</svg>